<mxfile host="app.diagrams.net" modified="2023-03-27T06:50:52.277Z" agent="Mozilla/5.0 (Windows NT 10.0; Win64; x64) AppleWebKit/537.36 (KHTML, like Gecko) Chrome/111.0.0.0 Safari/537.36" version="21.1.1" etag="Kk03ieqtk8wQFcqHODKP" type="github">
  <diagram name="Page-1" id="1PG1D4QQlFnaMD97lDCO">
    <mxGraphModel>
      <root>
        <mxCell id="0" />
        <mxCell id="1" parent="0" />
      </root>
    </mxGraphModel>
  </diagram>
</mxfile>
